<?xml version="1.0" encoding="UTF-8"?>
<svg id="Layer_1" data-name="Layer 1" xmlns="http://www.w3.org/2000/svg" xmlns:xlink="http://www.w3.org/1999/xlink" viewBox="0 0 357.4 195.63">
  <defs>
    <style>
      .cls-1, .cls-2, .cls-3, .cls-4, .cls-5, .cls-6, .cls-7, .cls-8, .cls-9 {
        stroke-width: .45px;
      }

      .cls-1, .cls-2, .cls-3, .cls-10, .cls-8, .cls-9 {
        stroke-miterlimit: 10;
      }

      .cls-1, .cls-2, .cls-8 {
        stroke: #231f20;
      }

      .cls-1, .cls-11 {
        fill: #fff;
      }

      .cls-12 {
        font-family: Georgia, Georgia;
        font-size: 9px;
      }

      .cls-12, .cls-13 {
        fill: #010101;
      }

      .cls-14 {
        stroke: #ee2527;
      }

      .cls-14, .cls-15, .cls-16, .cls-17, .cls-2, .cls-18, .cls-3, .cls-19, .cls-4, .cls-5, .cls-20, .cls-21, .cls-22, .cls-6, .cls-23, .cls-7, .cls-10, .cls-9, .cls-24 {
        fill: none;
      }

      .cls-14, .cls-15, .cls-16, .cls-17, .cls-18, .cls-19, .cls-25, .cls-20, .cls-26, .cls-21, .cls-22, .cls-27, .cls-23, .cls-28, .cls-24 {
        stroke-width: .9px;
      }

      .cls-14, .cls-17, .cls-4, .cls-25, .cls-5, .cls-26, .cls-6, .cls-27, .cls-7, .cls-28, .cls-24 {
        stroke-linejoin: round;
      }

      .cls-15 {
        stroke: url(#linear-gradient-13);
      }

      .cls-15, .cls-16, .cls-18, .cls-19, .cls-20, .cls-21, .cls-22, .cls-23 {
        stroke-linejoin: bevel;
      }

      .cls-16, .cls-17 {
        stroke: #ec2527;
      }

      .cls-29, .cls-30, .cls-31 {
        fill: #231f20;
      }

      .cls-32 {
        fill: url(#linear-gradient);
      }

      .cls-32, .cls-33, .cls-34, .cls-35, .cls-36, .cls-37, .cls-38, .cls-39, .cls-40, .cls-41, .cls-42 {
        opacity: .4;
      }

      .cls-18, .cls-24 {
        stroke: #0072bc;
      }

      .cls-33 {
        fill: url(#linear-gradient-9);
      }

      .cls-34, .cls-43 {
        fill: #ec2527;
      }

      .cls-3, .cls-4, .cls-25, .cls-5, .cls-26, .cls-6, .cls-27, .cls-7, .cls-9, .cls-28 {
        stroke: #010101;
      }

      .cls-19 {
        stroke: url(#linear-gradient-2);
      }

      .cls-4 {
        stroke-dasharray: 1.8 1.8;
      }

      .cls-30 {
        font-family: Georgia-Italic, Georgia;
        font-style: italic;
      }

      .cls-30, .cls-44 {
        font-size: 10px;
      }

      .cls-25 {
        fill: #bcbec0;
      }

      .cls-35, .cls-45 {
        fill: #0072bc;
      }

      .cls-36 {
        fill: url(#linear-gradient-10);
      }

      .cls-37 {
        fill: url(#linear-gradient-7);
      }

      .cls-20 {
        stroke: url(#linear-gradient-14);
      }

      .cls-46 {
        fill: #ee2527;
      }

      .cls-26 {
        fill: #c9c9c9;
      }

      .cls-21 {
        stroke: url(#linear-gradient-8);
      }

      .cls-22 {
        stroke: url(#linear-gradient-6);
      }

      .cls-47, .cls-44 {
        fill: #00a875;
      }

      .cls-6 {
        stroke-dasharray: 1.8 1.8;
      }

      .cls-27 {
        fill: #848484;
      }

      .cls-23 {
        stroke: url(#linear-gradient-4);
      }

      .cls-38 {
        fill: url(#linear-gradient-11);
      }

      .cls-7 {
        stroke-dasharray: 1.73 1.73;
      }

      .cls-10 {
        stroke: #00a875;
        stroke-width: 1.8px;
      }

      .cls-39 {
        fill: #ef4136;
      }

      .cls-31 {
        font-family: MyriadPro-Bold, 'QXNDY N+ Myriad Pro';
        font-size: 36px;
        font-weight: 700;
      }

      .cls-40 {
        fill: url(#linear-gradient-12);
      }

      .cls-9 {
        stroke-dasharray: 1.74 1.74;
      }

      .cls-28 {
        fill: #989898;
      }

      .cls-41 {
        fill: url(#linear-gradient-5);
      }

      .cls-44 {
        font-family: ArialMT, Arial;
      }

      .cls-42 {
        fill: url(#linear-gradient-3);
      }
    </style>
    <linearGradient id="linear-gradient" x1="320.69" y1="163.42" x2="318.65" y2="174.97" gradientUnits="userSpaceOnUse">
      <stop offset="0" stop-color="#ec2527"/>
      <stop offset=".5" stop-color="#fff" stop-opacity=".5"/>
      <stop offset="1" stop-color="#0072bc"/>
    </linearGradient>
    <linearGradient id="linear-gradient-2" x1="325.81" y1="163.96" x2="323.67" y2="176.12" xlink:href="#linear-gradient"/>
    <linearGradient id="linear-gradient-3" y1="114.82" x2="318.65" y2="126.37" xlink:href="#linear-gradient"/>
    <linearGradient id="linear-gradient-4" x1="325.81" y1="115.36" x2="323.67" y2="127.52" gradientUnits="userSpaceOnUse">
      <stop offset="0" stop-color="#ec2527"/>
      <stop offset=".5" stop-color="#fff" stop-opacity=".5"/>
      <stop offset="1" stop-color="#0072bc"/>
    </linearGradient>
    <linearGradient id="linear-gradient-5" x1="210.01" y1="167.17" x2="210.01" y2="114.52" xlink:href="#linear-gradient"/>
    <linearGradient id="linear-gradient-6" x1="209.9" y1="167.47" x2="209.9" y2="118.23" xlink:href="#linear-gradient"/>
    <linearGradient id="linear-gradient-7" x1="189.76" y1="175.27" x2="189.76" y2="122.62" xlink:href="#linear-gradient"/>
    <linearGradient id="linear-gradient-8" x1="190.1" y1="175.57" x2="190.1" y2="126.33" xlink:href="#linear-gradient"/>
    <linearGradient id="linear-gradient-9" x1="199.83" y1="175.27" x2="199.83" y2="118.57" gradientUnits="userSpaceOnUse">
      <stop offset="0" stop-color="#ec2527"/>
      <stop offset=".5" stop-color="#fff" stop-opacity=".5"/>
      <stop offset="1" stop-color="#0072bc"/>
    </linearGradient>
    <linearGradient id="linear-gradient-10" x1="82.89" y1="167.17" x2="82.89" y2="114.52" gradientUnits="userSpaceOnUse">
      <stop offset="0" stop-color="#ec2527"/>
      <stop offset="1" stop-color="#f47d6b" stop-opacity=".5"/>
    </linearGradient>
    <linearGradient id="linear-gradient-11" x1="65.6" y1="116.53" x2="61.87" y2="126.76" gradientUnits="userSpaceOnUse">
      <stop offset="0" stop-color="#fff" stop-opacity=".5"/>
      <stop offset=".83" stop-color="#0072bc"/>
    </linearGradient>
    <linearGradient id="linear-gradient-12" x1="62.64" y1="172.47" x2="62.64" y2="122.62" gradientUnits="userSpaceOnUse">
      <stop offset="0" stop-color="#808cc6" stop-opacity=".5"/>
      <stop offset="1" stop-color="#0072bc"/>
    </linearGradient>
    <linearGradient id="linear-gradient-13" x1="75.46" y1="163.35" x2="73.31" y2="175.56" gradientUnits="userSpaceOnUse">
      <stop offset=".22" stop-color="#ec2527"/>
      <stop offset=".78" stop-color="#fff" stop-opacity=".5"/>
      <stop offset="1" stop-color="#0072bc"/>
    </linearGradient>
    <linearGradient id="linear-gradient-14" x1="72.2" y1="114.26" x2="70.1" y2="126.2" gradientUnits="userSpaceOnUse">
      <stop offset=".09" stop-color="#ec2527"/>
      <stop offset=".22" stop-color="#fff" stop-opacity=".5"/>
      <stop offset="1" stop-color="#0072bc"/>
    </linearGradient>
  </defs>
  <polygon class="cls-32" points="321.69 175.27 297.39 171.22 317.64 163.12 341.94 167.17 309.54 167.17 321.69 175.27"/>
  <line class="cls-16" x1="341.49" y1="118.57" x2="341.49" y2="167.17"/>
  <polyline class="cls-19" points="321.24 175.27 309.09 167.17 341.49 167.17"/>
  <polygon class="cls-39" points="317.19 114.52 341.49 118.57 341.49 167.17 317.19 163.12 317.19 114.52"/>
  <g>
    <polygon class="cls-28" points="272.31 167.17 296.49 171.22 296.49 122.62 272.48 118.57 272.31 167.17"/>
    <polygon class="cls-27" points="272.64 118.57 292.89 110.47 316.97 114.52 296.49 122.62 272.64 118.57"/>
    <polygon class="cls-26" points="296.49 122.62 296.49 171.22 317.19 163.12 316.97 114.52 296.49 122.62"/>
  </g>
  <g>
    <line class="cls-24" x1="300.88" y1="123.28" x2="321.24" y2="126.67"/>
    <polygon class="cls-45" points="301.54 124.71 296.94 122.62 301.97 122.13 301.54 124.71"/>
  </g>
  <g>
    <line class="cls-24" x1="321.24" y1="175.27" x2="300.88" y2="171.88"/>
    <polygon class="cls-45" points="301.97 170.73 296.94 171.22 301.54 173.31 301.97 170.73"/>
  </g>
  <g>
    <line class="cls-17" x1="317.19" y1="138.82" x2="337.56" y2="142.22"/>
    <polygon class="cls-43" points="336.47 143.36 341.49 142.87 336.9 140.78 336.47 143.36"/>
  </g>
  <g>
    <line class="cls-5" x1="307.88" y1="117.98" x2="307.89" y2="118.88"/>
    <line class="cls-7" x1="307.9" y1="120.61" x2="308.26" y2="164.85"/>
    <line class="cls-5" x1="308.27" y1="165.71" x2="308.27" y2="166.61"/>
  </g>
  <g>
    <line class="cls-17" x1="317.19" y1="163.12" x2="337.56" y2="166.52"/>
    <polygon class="cls-43" points="336.47 167.66 341.49 167.17 336.9 165.08 336.47 167.66"/>
  </g>
  <g>
    <line class="cls-3" x1="307.88" y1="117.98" x2="306.99" y2="117.83"/>
    <line class="cls-9" x1="305.28" y1="117.54" x2="285.55" y2="114.22"/>
    <line class="cls-3" x1="284.69" y1="114.08" x2="283.81" y2="113.93"/>
  </g>
  <g>
    <line class="cls-3" x1="284.68" y1="144.9" x2="265.93" y2="152.4"/>
    <polygon class="cls-13" points="265.82 151.23 264.43 153 266.65 153.32 265.82 151.23"/>
  </g>
  <g>
    <line class="cls-3" x1="294.81" y1="171.22" x2="294.81" y2="183.78"/>
    <polygon class="cls-13" points="293.69 183.45 294.81 185.4 295.93 183.45 293.69 183.45"/>
  </g>
  <text class="cls-12" transform="translate(258.66 156.7)"><tspan x="0" y="0">x</tspan></text>
  <text class="cls-12" transform="translate(293.73 191.77)"><tspan x="0" y="0">y</tspan></text>
  <g>
    <line class="cls-3" x1="308.08" y1="142.87" x2="346.09" y2="148.7"/>
    <polygon class="cls-13" points="345.59 149.76 347.68 148.95 345.93 147.54 345.59 149.76"/>
  </g>
  <text class="cls-12" transform="translate(351.14 150.32)"><tspan x="0" y="0">z</tspan></text>
  <g>
    <line class="cls-24" x1="300.88" y1="147.58" x2="321.24" y2="150.97"/>
    <polygon class="cls-45" points="301.54 149.01 296.94 146.92 301.97 146.43 301.54 149.01"/>
  </g>
  <polygon class="cls-42" points="321.69 126.67 297.39 122.62 317.64 114.52 341.94 118.57 309.54 118.57 321.69 126.67"/>
  <polyline class="cls-23" points="321.24 126.67 309.09 118.57 341.49 118.57"/>
  <line class="cls-18" x1="321.24" y1="126.67" x2="321.24" y2="175.27"/>
  <polygon class="cls-35" points="296.94 122.62 321.24 126.67 321.24 175.27 296.94 171.22 296.94 122.62"/>
  <rect class="cls-25" x="280.98" y="3.63" width="31.89" height="51.02"/>
  <g>
    <line class="cls-5" x1="296.92" y1="29.14" x2="262.64" y2="29.14"/>
    <polygon class="cls-13" points="263.53 27.83 258.66 29.14 263.53 30.45 263.53 27.83"/>
  </g>
  <g>
    <line class="cls-2" x1="296.92" y1="29.14" x2="296.92" y2="76.17"/>
    <polygon class="cls-29" points="295.62 75.28 296.92 80.16 298.23 75.28 295.62 75.28"/>
  </g>
  <text class="cls-12" transform="translate(252.8 27.56)"><tspan x="0" y="0">x</tspan></text>
  <text class="cls-12" transform="translate(293.73 89.73)"><tspan x="0" y="0">y</tspan></text>
  <g>
    <g>
      <line class="cls-10" x1="296.92" y1="32.33" x2="296.92" y2="57.84"/>
      <polygon class="cls-47" points="293.79 55.7 296.92 67.41 300.06 55.7 293.79 55.7"/>
    </g>
    <g>
      <line class="cls-10" x1="296.92" y1="29.14" x2="296.92" y2="51.46"/>
      <polygon class="cls-47" points="293.79 49.32 296.92 61.03 300.06 49.32 293.79 49.32"/>
    </g>
  </g>
  <g>
    <line class="cls-14" x1="317.19" y1="114.52" x2="337.56" y2="117.92"/>
    <polygon class="cls-46" points="336.47 119.06 341.49 118.57 336.9 116.48 336.47 119.06"/>
  </g>
  <text class="cls-44" transform="translate(303.3 67.41)"><tspan x="0" y="0">M</tspan></text>
  <text class="cls-44" transform="translate(311.63 70.74) scale(.58)"><tspan x="0" y="0">y</tspan></text>
  <polygon class="cls-41" points="222.27 167.17 197.75 163.12 197.75 114.52 222.27 118.57 197.97 138.82 222.27 167.17"/>
  <rect class="cls-25" x="165.17" y="3.63" width="31.89" height="51.02"/>
  <g>
    <line class="cls-5" x1="181.11" y1="29.14" x2="137.27" y2="29.14"/>
    <polygon class="cls-13" points="138.16 27.83 133.28 29.14 138.16 30.45 138.16 27.83"/>
  </g>
  <g>
    <line class="cls-2" x1="181.11" y1="29.14" x2="181.11" y2="76.17"/>
    <polygon class="cls-29" points="179.81 75.28 181.11 80.16 182.42 75.28 179.81 75.28"/>
  </g>
  <text class="cls-12" transform="translate(126.9 29.14)"><tspan x="0" y="0">x</tspan></text>
  <text class="cls-12" transform="translate(177.92 89.73)"><tspan x="0" y="0">y</tspan></text>
  <text class="cls-44" transform="translate(142.77 41.89)"><tspan x="0" y="0">M</tspan></text>
  <text class="cls-44" transform="translate(151.1 45.22) scale(.58)"><tspan x="0" y="0">x</tspan></text>
  <polygon class="cls-34" points="177.95 171.22 202.25 175.27 222.5 167.17 198.2 163.12 177.95 171.22"/>
  <g>
    <line class="cls-17" x1="188.07" y1="167.17" x2="208.44" y2="170.57"/>
    <polygon class="cls-43" points="207.34 171.71 212.37 171.22 207.77 169.13 207.34 171.71"/>
  </g>
  <polyline class="cls-22" points="222.05 118.57 197.75 138.82 222.05 167.17"/>
  <g>
    <polygon class="cls-28" points="153.31 167.17 177.5 171.22 177.5 122.62 153.48 118.57 153.31 167.17"/>
    <polygon class="cls-27" points="153.65 118.57 173.9 110.47 197.97 114.52 177.5 122.62 153.65 118.57"/>
    <polygon class="cls-26" points="177.5 122.62 177.5 171.22 198.2 163.12 197.97 114.52 177.5 122.62"/>
  </g>
  <g>
    <line class="cls-24" x1="202.13" y1="115.18" x2="222.5" y2="118.57"/>
    <polygon class="cls-45" points="202.79 116.61 198.2 114.52 203.22 114.04 202.79 116.61"/>
  </g>
  <g>
    <line class="cls-17" x1="198.2" y1="163.12" x2="218.56" y2="166.52"/>
    <polygon class="cls-43" points="217.47 167.66 222.5 167.17 217.9 165.08 217.47 167.66"/>
  </g>
  <polygon class="cls-35" points="177.95 122.62 202.25 126.67 222.5 118.57 198.2 114.52 177.95 122.62"/>
  <polygon class="cls-37" points="202.02 175.27 177.5 171.22 177.5 122.62 202.02 126.67 177.72 146.92 202.02 175.27"/>
  <g>
    <line class="cls-17" x1="198.31" y1="174.62" x2="177.95" y2="171.22"/>
    <polygon class="cls-43" points="197.65 173.18 202.25 175.27 197.22 175.76 197.65 173.18"/>
  </g>
  <g>
    <line class="cls-24" x1="181.88" y1="123.28" x2="202.25" y2="126.67"/>
    <polygon class="cls-45" points="182.54 124.71 177.95 122.62 182.97 122.14 182.54 124.71"/>
  </g>
  <polyline class="cls-21" points="202.25 126.67 177.95 146.92 202.25 175.27"/>
  <line class="cls-18" x1="202.25" y1="126.67" x2="222.27" y2="118.57"/>
  <line class="cls-16" x1="202.02" y1="175.27" x2="222.05" y2="167.17"/>
  <g>
    <line class="cls-5" x1="177.72" y1="146.92" x2="178.56" y2="146.59"/>
    <line class="cls-6" x1="180.22" y1="145.91" x2="196.08" y2="139.5"/>
    <line class="cls-5" x1="196.91" y1="139.16" x2="197.75" y2="138.82"/>
  </g>
  <g>
    <line class="cls-24" x1="192" y1="119.23" x2="212.37" y2="122.62"/>
    <polygon class="cls-45" points="192.67 120.66 188.07 118.57 193.1 118.09 192.67 120.66"/>
  </g>
  <polygon class="cls-33" points="201.85 175.27 177.55 146.92 201.85 126.67 222.1 118.57 197.8 138.82 222.1 167.17 201.85 175.27"/>
  <g>
    <line class="cls-3" x1="177.72" y1="146.92" x2="176.83" y2="146.77"/>
    <line class="cls-9" x1="175.12" y1="146.48" x2="155.39" y2="143.17"/>
    <line class="cls-3" x1="154.53" y1="143.02" x2="153.65" y2="142.87"/>
  </g>
  <g>
    <line class="cls-3" x1="165.68" y1="144.9" x2="146.93" y2="152.4"/>
    <polygon class="cls-13" points="146.82 151.23 145.43 153 147.65 153.32 146.82 151.23"/>
  </g>
  <g>
    <line class="cls-3" x1="175.81" y1="171.22" x2="175.81" y2="183.78"/>
    <polygon class="cls-13" points="174.69 183.45 175.81 185.4 176.93 183.45 174.69 183.45"/>
  </g>
  <text class="cls-12" transform="translate(139.66 156.7)"><tspan x="0" y="0">x</tspan></text>
  <text class="cls-12" transform="translate(174.74 191.78)"><tspan x="0" y="0">y</tspan></text>
  <g>
    <line class="cls-3" x1="187.73" y1="142.87" x2="210.33" y2="146.66"/>
    <polygon class="cls-13" points="209.82 147.71 211.92 146.92 210.19 145.5 209.82 147.71"/>
  </g>
  <text class="cls-12" transform="translate(216.19 150.32)"><tspan x="0" y="0">z</tspan></text>
  <g>
    <g>
      <line class="cls-10" x1="177.85" y1="29.14" x2="152.34" y2="29.14"/>
      <polygon class="cls-47" points="154.48 26 142.77 29.14 154.48 32.28 154.48 26"/>
    </g>
    <g>
      <line class="cls-10" x1="181.04" y1="29.14" x2="158.72" y2="29.14"/>
      <polygon class="cls-47" points="160.86 26 149.15 29.14 160.86 32.28 160.86 26"/>
    </g>
  </g>
  <g>
    <path class="cls-1" d="M179.46,27.56c-.4.4-.65.96-.65,1.58s.25,1.17.65,1.58l1.58-1.58-1.58-1.58Z"/>
    <path class="cls-8" d="M182.62,27.56c-.4-.4-.96-.65-1.58-.65s-1.17.25-1.58.65l1.58,1.58,1.58-1.58Z"/>
    <path class="cls-8" d="M179.46,30.72c.4.4.96.65,1.58.65s1.17-.25,1.58-.65l-1.58-1.58-1.58,1.58Z"/>
    <path class="cls-1" d="M182.62,27.56l-1.58,1.58,1.58,1.58c.4-.4.65-.96.65-1.58s-.25-1.17-.65-1.58Z"/>
  </g>
  <polygon class="cls-36" points="95.16 167.17 70.63 163.12 70.63 114.52 78.21 115.77 95.16 167.17"/>
  <line class="cls-16" x1="95.16" y1="167.17" x2="78.21" y2="115.77"/>
  <rect class="cls-25" x="37.72" y="3.63" width="31.89" height="51.02"/>
  <g>
    <line class="cls-5" x1="53.66" y1="29.14" x2="16.12" y2="29.14"/>
    <polygon class="cls-13" points="17.01 27.83 12.13 29.14 17.01 30.45 17.01 27.83"/>
  </g>
  <g>
    <line class="cls-2" x1="53.66" y1="29.14" x2="53.66" y2="76.17"/>
    <polygon class="cls-29" points="52.35 75.28 53.66 80.16 54.97 75.28 52.35 75.28"/>
  </g>
  <text class="cls-12" transform="translate(3.75 31.37)"><tspan x="0" y="0">x</tspan></text>
  <text class="cls-12" transform="translate(52.01 88.06)"><tspan x="0" y="0">y</tspan></text>
  <text class="cls-44" transform="translate(5.75 66.22)"><tspan x="0" y="0">M</tspan></text>
  <path class="cls-2" d="M40.83,29.14c0,3.53,1.43,6.38,3.19,6.38"/>
  <g>
    <g>
      <line class="cls-11" x1="54.37" y1="29.14" x2="12.13" y2="54.65"/>
      <g>
        <line class="cls-10" x1="54.37" y1="29.14" x2="20.32" y2="49.7"/>
        <polygon class="cls-47" points="20.53 45.91 12.13 54.65 23.77 51.28 20.53 45.91"/>
      </g>
    </g>
    <g>
      <line class="cls-11" x1="53.59" y1="29.29" x2="16.78" y2="51.46"/>
      <g>
        <line class="cls-10" x1="53.59" y1="29.29" x2="24.98" y2="46.52"/>
        <polygon class="cls-47" points="25.19 42.73 16.78 51.46 28.43 48.11 25.19 42.73"/>
      </g>
    </g>
  </g>
  <path class="cls-2" d="M40.83,32.12c-1.17,2.3-2.48,2.96-3.19,3.19-4.74,1.56-11.16-6.26-12.57-9.22-.04-.08-.09-.19-.18-.35-1.28-2.22-4.04-2.95-6.38-3.19"/>
  <text class="cls-30" transform="translate(12.13 22.76)"><tspan x="0" y="0">θ</tspan></text>
  <g>
    <path class="cls-1" d="M52.01,27.56c-.4.4-.65.96-.65,1.58s.25,1.17.65,1.58l1.58-1.58-1.58-1.58Z"/>
    <path class="cls-8" d="M55.17,27.56c-.4-.4-.96-.65-1.58-.65s-1.17.25-1.58.65l1.58,1.58,1.58-1.58Z"/>
    <path class="cls-8" d="M52.01,30.72c.4.4.96.65,1.58.65s1.17-.25,1.58-.65l-1.58-1.58-1.58,1.58Z"/>
    <path class="cls-1" d="M55.17,27.56l-1.58,1.58,1.58,1.58c.4-.4.65-.96.65-1.58s-.25-1.17-.65-1.58Z"/>
  </g>
  <polygon class="cls-34" points="50.49 171.22 54.7 169.54 95.04 167.17 70.74 163.12 50.49 171.22"/>
  <g>
    <polygon class="cls-28" points="25.86 167.17 50.04 171.22 50.04 122.62 26.02 118.57 25.86 167.17"/>
    <polygon class="cls-27" points="26.19 118.57 46.44 110.47 70.52 114.52 50.04 122.62 26.19 118.57"/>
    <polygon class="cls-26" points="50.04 122.62 50.04 171.22 70.74 163.12 70.52 114.52 50.04 122.62"/>
  </g>
  <g>
    <line class="cls-17" x1="70.74" y1="163.12" x2="91.11" y2="166.52"/>
    <polygon class="cls-43" points="90.02 167.66 95.04 167.17 90.45 165.08 90.02 167.66"/>
  </g>
  <polygon class="cls-38" points="50.49 122.62 74.79 126.67 74.79 126.67 65.7 116.56 50.49 122.62"/>
  <polygon class="cls-40" points="57.96 172.47 50.38 171.22 50.38 122.62 74.91 126.67 57.96 172.47"/>
  <polyline class="cls-15" points="57.96 172.47 54.7 169.54 94.59 167.17"/>
  <line class="cls-18" x1="57.96" y1="172.47" x2="74.79" y2="126.67"/>
  <g>
    <line class="cls-5" x1="54.7" y1="169.54" x2="54.89" y2="168.66"/>
    <line class="cls-4" x1="55.25" y1="166.89" x2="65.33" y2="118.33"/>
    <line class="cls-5" x1="65.52" y1="117.44" x2="65.7" y2="116.56"/>
  </g>
  <g>
    <line class="cls-3" x1="65.7" y1="116.56" x2="64.81" y2="116.41"/>
    <line class="cls-9" x1="63.1" y1="116.13" x2="43.37" y2="112.81"/>
    <line class="cls-3" x1="42.51" y1="112.66" x2="41.62" y2="112.51"/>
  </g>
  <g>
    <line class="cls-3" x1="38.23" y1="144.9" x2="19.48" y2="152.4"/>
    <polygon class="cls-13" points="19.37 151.23 17.98 153 20.2 153.32 19.37 151.23"/>
  </g>
  <g>
    <line class="cls-3" x1="48.36" y1="171.22" x2="48.36" y2="183.78"/>
    <polygon class="cls-13" points="47.23 183.45 48.36 185.4 49.48 183.45 47.23 183.45"/>
  </g>
  <text class="cls-12" transform="translate(12.2 156.7)"><tspan x="0" y="0">x</tspan></text>
  <text class="cls-12" transform="translate(47.28 191.78)"><tspan x="0" y="0">y</tspan></text>
  <g>
    <line class="cls-3" x1="60.28" y1="142.87" x2="94.97" y2="148.68"/>
    <polygon class="cls-13" points="94.46 149.73 96.56 148.95 94.83 147.52 94.46 149.73"/>
  </g>
  <text class="cls-12" transform="translate(98.31 150.97)"><tspan x="0" y="0">z</tspan></text>
  <g>
    <line class="cls-24" x1="54.42" y1="171.88" x2="57.96" y2="172.47"/>
    <polygon class="cls-45" points="55.09 173.31 50.49 171.22 55.52 170.73 55.09 173.31"/>
  </g>
  <g>
    <line class="cls-17" x1="70.74" y1="114.52" x2="74.28" y2="115.11"/>
    <polygon class="cls-43" points="73.19 116.26 78.21 115.77 73.62 113.68 73.19 116.26"/>
  </g>
  <g>
    <line class="cls-24" x1="54.43" y1="123.28" x2="74.79" y2="126.67"/>
    <polygon class="cls-45" points="55.09 124.71 50.49 122.62 55.52 122.14 55.09 124.71"/>
  </g>
  <g>
    <line class="cls-24" x1="54.43" y1="147.63" x2="66.04" y2="149.57"/>
    <polygon class="cls-45" points="55.09 149.07 50.49 146.98 55.52 146.49 55.09 149.07"/>
  </g>
  <g>
    <line class="cls-17" x1="70.74" y1="137.42" x2="82.27" y2="139.34"/>
    <polygon class="cls-43" points="81.17 140.48 86.2 140 81.6 137.9 81.17 140.48"/>
  </g>
  <polyline class="cls-20" points="74.79 126.67 65.7 116.56 78.21 115.77"/>
  <text class="cls-31" transform="translate(94.59 34.75) scale(.58)"><tspan x="0" y="0">=</tspan></text>
  <text class="cls-31" transform="translate(222.5 34.54) scale(.58)"><tspan x="0" y="0">+</tspan></text>
  <text class="cls-31" transform="translate(95.59 139.75) scale(.58)"><tspan x="0" y="0">=</tspan></text>
  <text class="cls-31" transform="translate(223.5 139.54) scale(.58)"><tspan x="0" y="0">+</tspan></text>
</svg>