<?xml version="1.0" encoding="UTF-8"?>
<svg id="Layer_1" xmlns="http://www.w3.org/2000/svg" version="1.1" xmlns:xlink="http://www.w3.org/1999/xlink" viewBox="0 0 357.4 184.45">
  <!-- Generator: Adobe Illustrator 29.7.1, SVG Export Plug-In . SVG Version: 2.1.1 Build 8)  -->
  <defs>
    <style>
      .st0 {
        fill: url(#linear-gradient4);
      }

      .st0, .st1, .st2, .st3, .st4, .st5, .st6, .st7, .st8, .st9, .st10, .st11, .st12 {
        stroke: #231f20;
        stroke-miterlimit: 10;
      }

      .st0, .st2, .st5, .st13, .st10, .st11 {
        stroke-width: .75px;
      }

      .st1 {
        stroke-dasharray: 6.74 6.74;
      }

      .st1, .st3, .st4, .st14, .st15, .st16, .st6, .st13, .st7, .st8, .st9, .st17, .st18, .st12 {
        fill: none;
      }

      .st1, .st3, .st4, .st6, .st7, .st8, .st9, .st12 {
        stroke-width: .5px;
      }

      .st19, .st20, .st21 {
        fill: #1971b9;
      }

      .st2 {
        fill: #e6e7e8;
      }

      .st3 {
        stroke-dasharray: 6;
      }

      .st22, .st23 {
        fill: #231f20;
      }

      .st4 {
        stroke-dasharray: 6 4;
      }

      .st24 {
        fill: #fff;
      }

      .st14, .st16 {
        stroke: #1c75bc;
      }

      .st14, .st16, .st13, .st17, .st18 {
        stroke-linejoin: round;
      }

      .st14, .st17 {
        stroke-width: 1.5px;
      }

      .st20, .st25, .st26, .st21 {
        font-family: ArialMT, Arial;
      }

      .st20, .st25, .st21, .st23 {
        font-size: 11px;
      }

      .st5 {
        fill: url(#linear-gradient3);
      }

      .st6 {
        stroke-dasharray: 6 6;
      }

      .st25, .st27, .st26 {
        fill: #00a651;
      }

      .st28 {
        fill: #1c75bc;
      }

      .st13 {
        stroke: #1971b9;
      }

      .st26 {
        font-size: 10px;
      }

      .st8 {
        stroke-dasharray: 6.38 6.38;
      }

      .st9 {
        stroke-dasharray: 6.58 6.58;
      }

      .st10 {
        fill: url(#linear-gradient1);
      }

      .st21 {
        letter-spacing: 0em;
      }

      .st17, .st18 {
        stroke: #00a651;
      }

      .st11 {
        fill: url(#linear-gradient2);
      }

      .st23 {
        font-family: TimesNewRomanPS-ItalicMT, 'Times New Roman';
        font-style: italic;
      }

      .st29 {
        fill: url(#linear-gradient);
      }

      .st12 {
        stroke-dasharray: 5.63 5.63;
      }
    </style>
    <linearGradient id="linear-gradient" x1="623.27" y1="-715.77" x2="569.28" y2="-772.27" gradientTransform="translate(123.6 -727.05) rotate(130.14) scale(.78 .87) skewX(-.97)" gradientUnits="userSpaceOnUse">
      <stop offset="0" stop-color="#c49a6c"/>
      <stop offset=".26" stop-color="#c09668"/>
      <stop offset=".52" stop-color="#b58a5f"/>
      <stop offset=".77" stop-color="#a37750"/>
      <stop offset="1" stop-color="#8b5e3c"/>
    </linearGradient>
    <linearGradient id="linear-gradient1" x1="274.36" y1="42.08" x2="278.45" y2="53.98" gradientUnits="userSpaceOnUse">
      <stop offset="0" stop-color="#d1d3d4"/>
      <stop offset=".2" stop-color="#cdcfd0"/>
      <stop offset=".4" stop-color="#c1c3c4"/>
      <stop offset=".6" stop-color="#adafb1"/>
      <stop offset=".79" stop-color="#929395"/>
      <stop offset=".99" stop-color="#6f7073"/>
      <stop offset="1" stop-color="#6d6e71"/>
    </linearGradient>
    <linearGradient id="linear-gradient2" x1="281.33" y1="52.13" x2="291.67" y2="82.18" gradientUnits="userSpaceOnUse">
      <stop offset="0" stop-color="#d1d3d4"/>
      <stop offset=".07" stop-color="#ccced0"/>
      <stop offset=".15" stop-color="#c0c2c4"/>
      <stop offset=".22" stop-color="#acaeb1"/>
      <stop offset=".24" stop-color="#a7a9ac"/>
      <stop offset=".37" stop-color="#b6b8bb"/>
      <stop offset=".55" stop-color="#d1d3d4"/>
      <stop offset=".65" stop-color="#babcbd"/>
      <stop offset=".87" stop-color="#808183"/>
      <stop offset=".93" stop-color="#6d6e71"/>
    </linearGradient>
    <linearGradient id="linear-gradient3" x1="109.94" y1="96.84" x2="114.08" y2="108.85" xlink:href="#linear-gradient1"/>
    <linearGradient id="linear-gradient4" x1="116.45" y1="107.06" x2="126.83" y2="137.22" xlink:href="#linear-gradient2"/>
  </defs>
  <path class="st29" d="M277.17,36.72c-1.12,3.12-3.46,9.69-.46,15.66,1.44,2.87,2.73,2.83,7.11,8.26,3.42,4.25,4.91,7.09,5.96,8.61,5.38,7.78,22.39,14.13,36.52,8.03,10.3-4.45,17.58-14.87,17.33-26.78-.24-11.72-7.78-25.26-16.64-27.08-7.47-1.54-9.41,6.58-20.31,6.48-10.18-.1-14.37-7.24-21.07-4.69-4.99,1.9-7,7.51-8.43,11.52Z"/>
  <g>
    <line class="st17" x1="144.91" y1="146.78" x2="144.91" y2="64.44"/>
    <polygon class="st27" points="147.09 145.3 144.91 153.43 142.73 145.3 147.09 145.3"/>
  </g>
  <g>
    <line class="st17" x1="92.53" y1="93.17" x2="197.88" y2="130.8"/>
    <polygon class="st27" points="93.2 95.72 86.27 90.94 94.66 91.62 93.2 95.72"/>
  </g>
  <g>
    <line class="st17" x1="189.03" y1="97.17" x2="151.91" y2="109.54"/>
    <polygon class="st27" points="186.93 95.57 195.33 95.07 188.31 99.71 186.93 95.57"/>
  </g>
  <rect class="st24" x="181" y="97.97" width="3.44" height="2.12" transform="translate(244.59 -99.37) rotate(78.86)"/>
  <g>
    <path class="st18" d="M167.52,101.2c.1-6.59,3.49-11.91,7.66-11.91s7.67,5.47,7.67,12.21c0,2.84-.61,5.45-1.63,7.53"/>
    <polygon class="st27" points="180.19 107.2 178.88 113.8 183.32 108.73 180.19 107.2"/>
  </g>
  <g>
    <path class="st10" d="M317.75,40.45l-23.56,7.85-54.38,18.12-4.77-10.81,65.05-21.68s0,0,.01,0c.65-.29,1.53-.45,2.78-.45,1.87,0,3.11,1.65,4.78,3.25,1.38,1.32,3.06,2.61,5.63,2.9,1.52.16,2.8.23,4.36.79.03,0,.06.02.09.03Z"/>
    <path class="st11" d="M329,65.12c-3.37,4.09-5.11,5.96-7.35,6.63-.18.05-.37.1-.55.14v.16s-64.27,21.37-64.27,21.37l-17.01-26.99,54.36-18.07,23.65-7.88c.69.25,1.44.62,2.29,1.13.48.29.99.62,1.54,1.01,2.32,1.67,1.79,3.5,3.13,7.74,1.04,3.29,2.32,2.31,3.71,4.57,1.88,3.07,2.03,8.35.5,10.2Z"/>
    <path class="st4" d="M301.22,33.54c-3.15.55-2.67,2.87-3.85,6.2-1.53,4.33-4.54,9.52-4.22,16.88.25,5.73,1.45,7.36,6.33,10.55.47.31,1.39.86,6.33,2.11,7.59,1.92,12.53,3.27,15.65,2.46h0"/>
    <path class="st2" d="M238.07,55.14c-5.02,0-4.17,2.49-5.53,6.33-1.53,4.33-4.54,9.52-4.22,16.88.25,5.73,1.45,7.36,6.33,10.55.47.31,1.39.86,6.33,2.11,7.76,1.96,12.74,3.33,15.85,2.41,2.25-.67,3.98-2.54,7.35-6.63,1.53-1.85,1.37-7.14-.51-10.2-1.39-2.26-2.68-1.28-3.71-4.57-1.34-4.24-.82-6.08-3.14-7.74-3.81-2.73-5.72-2.7-8.35-3-5.67-.64-6.99-6.15-10.41-6.14Z"/>
  </g>
  <path class="st5" d="M158.14,93.68l-23.56,7.85-64.86,21.62-3.5-11.26,74.27-24.73s0,0,.01,0c.65-.29,1.53-.45,2.78-.45,1.87,0,3.11,1.65,4.78,3.25,1.38,1.32,3.06,2.61,5.63,2.9,1.52.16,2.8.23,4.36.79.03,0,.06.02.09.03Z"/>
  <path class="st0" d="M169.39,118.36c-3.37,4.09-5.11,5.96-7.35,6.63-.18.05-.37.1-.55.14v.16s-73.89,24.5-73.89,24.5l-17.87-26.63,64.85-21.57,23.65-7.88c.69.25,1.44.62,2.29,1.13.48.29.99.62,1.54,1.01,2.32,1.67,1.79,3.5,3.13,7.74,1.04,3.29,2.32,2.31,3.71,4.57,1.88,3.07,2.03,8.35.5,10.2Z"/>
  <path class="st4" d="M141.6,86.78c-3.15.55-2.67,2.87-3.85,6.2-1.53,4.33-4.54,9.52-4.22,16.88.25,5.73,1.45,7.36,6.33,10.55.47.31,1.39.86,6.33,2.11,7.59,1.92,12.53,3.27,15.65,2.46h0"/>
  <path class="st2" d="M68.83,111.51c-5.02,0-4.17,2.49-5.53,6.33-1.53,4.33-4.54,9.52-4.22,16.88.25,5.73,1.45,7.36,6.33,10.55.47.31,1.39.86,6.33,2.11,7.76,1.96,12.74,3.33,15.85,2.41,2.25-.67,3.98-2.54,7.35-6.63,1.53-1.85,1.37-7.14-.51-10.2-1.39-2.26-2.68-1.28-3.71-4.57-1.34-4.24-.82-6.08-3.14-7.74-3.81-2.73-5.72-2.7-8.35-3-5.67-.64-6.99-6.15-10.41-6.14Z"/>
  <g>
    <line class="st7" x1="304.32" y1="58.47" x2="301.48" y2="59.42"/>
    <line class="st9" x1="295.23" y1="61.51" x2="248.38" y2="77.12"/>
    <line class="st7" x1="245.25" y1="78.16" x2="242.41" y2="79.11"/>
  </g>
  <g>
    <line class="st7" x1="304.32" y1="36.37" x2="304.32" y2="18.94"/>
    <polygon class="st22" points="306.17 20.34 304.32 19.56 302.47 20.34 304.32 15.95 306.17 20.34"/>
  </g>
  <g>
    <line class="st7" x1="326.92" y1="66.54" x2="345.39" y2="73.14"/>
    <polygon class="st22" points="343.45 74.41 344.81 72.94 344.69 70.93 348.21 74.15 343.45 74.41"/>
  </g>
  <g>
    <line class="st7" x1="304.32" y1="35.59" x2="304.32" y2="38.59"/>
    <line class="st12" x1="304.32" y1="44.22" x2="304.32" y2="52.66"/>
    <line class="st7" x1="304.32" y1="55.47" x2="304.32" y2="58.47"/>
  </g>
  <g>
    <line class="st7" x1="304.32" y1="58.47" x2="307.15" y2="59.48"/>
    <line class="st6" x1="312.8" y1="61.5" x2="321.27" y2="64.53"/>
    <line class="st7" x1="324.09" y1="65.53" x2="326.92" y2="66.54"/>
  </g>
  <g>
    <line class="st7" x1="32.98" y1="149.12" x2="13.94" y2="155.47"/>
    <polygon class="st22" points="14.69 153.26 14.53 155.27 15.86 156.78 11.11 156.41 14.69 153.26"/>
  </g>
  <g>
    <line class="st17" x1="242.41" y1="105.2" x2="242.41" y2="36.17"/>
    <polygon class="st27" points="244.59 37.66 242.41 29.53 240.23 37.66 244.59 37.66"/>
  </g>
  <g>
    <line class="st17" x1="216.64" y1="70.3" x2="300.01" y2="100.07"/>
    <polygon class="st27" points="297.88 101.62 306.27 102.31 299.35 97.52 297.88 101.62"/>
  </g>
  <text class="st26" transform="translate(308.39 109.06)"><tspan x="0" y="0">V</tspan></text>
  <text class="st26" transform="translate(315.06 112.39) scale(.58)"><tspan x="0" y="0">x</tspan></text>
  <text class="st25" transform="translate(239.82 26.16)"><tspan x="0" y="0">V</tspan></text>
  <text class="st25" transform="translate(247.16 29.83) scale(.58)"><tspan x="0" y="0">y</tspan></text>
  <rect class="st24" x="240.69" y="45.58" width="3.44" height="2.1"/>
  <g>
    <path class="st18" d="M246.13,38.21c4.52.62,7.75,2.21,7.75,4.09,0,2.4-5.3,4.34-11.84,4.34-2.29,0-4.44-.24-6.25-.65"/>
    <polygon class="st27" points="237.61 44.69 230.94 43.79 236.27 47.91 237.61 44.69"/>
  </g>
  <rect class="st24" x="282.44" y="93.33" width="3.44" height="2.12" transform="translate(412.6 -176.09) rotate(97.03)"/>
  <g>
    <path class="st18" d="M290.25,108.59c-3.45-.16-6.23-5.47-6.23-12.02s2.86-12.02,6.39-12.02c2.97,0,5.46,3.81,6.18,8.97"/>
    <polygon class="st27" points="289.14 106.79 295.56 108.83 288.98 110.27 289.14 106.79"/>
  </g>
  <text class="st25" transform="translate(219.05 47.69)"><tspan x="0" y="0">M</tspan></text>
  <text class="st25" transform="translate(228.21 51.35) scale(.58)"><tspan x="0" y="0">y</tspan></text>
  <text class="st25" transform="translate(284.02 120.06)"><tspan x="0" y="0">M</tspan></text>
  <text class="st25" transform="translate(293.19 123.73) scale(.58)"><tspan x="0" y="0">x</tspan></text>
  <text class="st23" transform="translate(4.22 160.45)"><tspan x="0" y="0">z</tspan></text>
  <g>
    <line class="st17" x1="242" y1="79.52" x2="215.36" y2="88.39"/>
    <polygon class="st27" points="216.08 85.86 209.06 90.5 217.46 89.99 216.08 85.86"/>
  </g>
  <text class="st25" transform="translate(206.07 102.31)"><tspan x="0" y="0">N</tspan></text>
  <text class="st25" transform="translate(214.01 105.97) scale(.58)"><tspan x="0" y="0">z</tspan></text>
  <text class="st25" transform="translate(204.32 82.41)"><tspan x="0" y="0">T</tspan></text>
  <rect class="st24" x="225.61" y="83.36" width="3.44" height="2.12" transform="translate(266.26 -154.92) rotate(78.86)"/>
  <g>
    <path class="st18" d="M212.97,81.34c1.27-3.95,3.85-6.65,6.82-6.65,4.23,0,7.67,5.47,7.67,12.21,0,5.68-2.43,10.45-5.72,11.82"/>
    <polygon class="st27" points="215.01 80.51 212.13 86.6 211.58 79.89 215.01 80.51"/>
  </g>
  <g>
    <line class="st7" x1="165.73" y1="104.94" x2="162.88" y2="105.89"/>
    <line class="st8" x1="156.83" y1="107.91" x2="75.18" y2="135.23"/>
    <line class="st7" x1="72.15" y1="136.25" x2="69.31" y2="137.2"/>
  </g>
  <text class="st25" transform="translate(171.67 87.33)"><tspan x="0" y="0">T</tspan></text>
  <text class="st25" transform="translate(189.26 92.6)"><tspan x="0" y="0">N</tspan></text>
  <text class="st25" transform="translate(197.2 96.27) scale(.58)"><tspan x="0" y="0">z</tspan></text>
  <g>
    <line class="st7" x1="144.91" y1="111.88" x2="142.08" y2="110.87"/>
    <line class="st1" x1="135.73" y1="108.6" x2="113.51" y2="100.66"/>
    <line class="st7" x1="110.33" y1="99.53" x2="107.51" y2="98.52"/>
  </g>
  <line class="st3" x1="144.91" y1="130.8" x2="144.91" y2="87.33"/>
  <rect class="st24" x="180.99" y="124.13" width="3.44" height="2.12" transform="translate(329.31 -40.83) rotate(97.03)"/>
  <g>
    <path class="st18" d="M188.8,139.39c-3.45-.16-6.23-5.48-6.23-12.02s2.86-12.02,6.39-12.02c2.1,0,3.95,1.9,5.12,4.82"/>
    <polygon class="st27" points="192.02 119.72 196.04 125.12 195.26 118.43 192.02 119.72"/>
  </g>
  <text class="st25" transform="translate(198.11 125.21)"><tspan x="0" y="0">M</tspan></text>
  <text class="st25" transform="translate(207.27 128.88) scale(.58)"><tspan x="0" y="0">x</tspan></text>
  <rect class="st24" x="143.19" y="74.62" width="3.44" height="2.1"/>
  <g>
    <path class="st18" d="M153.77,68.6c1.63.74,2.61,1.69,2.61,2.73,0,2.4-5.29,4.34-11.84,4.34-5.09,0-9.44-1.18-11.1-2.84"/>
    <polygon class="st27" points="154.4 70.7 148.63 67.24 155.36 67.35 154.4 70.7"/>
  </g>
  <text class="st25" transform="translate(152.66 64.44)"><tspan x="0" y="0">M</tspan></text>
  <text class="st25" transform="translate(161.82 68.1) scale(.58)"><tspan x="0" y="0">y</tspan></text>
  <text class="st25" transform="translate(88.77 86.71)"><tspan x="0" y="0">V</tspan></text>
  <text class="st25" transform="translate(96.1 90.37) scale(.58)"><tspan x="0" y="0">x</tspan></text>
  <g>
    <line class="st13" x1="291.42" y1="41.18" x2="267.82" y2="49.04"/>
    <g>
      <line class="st13" x1="267.82" y1="49.04" x2="267.82" y2="34.74"/>
      <polygon class="st19" points="269.13 35.63 267.82 30.75 266.51 35.63 269.13 35.63"/>
    </g>
    <g>
      <line class="st13" x1="275.69" y1="46.42" x2="275.69" y2="24.09"/>
      <polygon class="st19" points="276.99 24.98 275.69 20.1 274.38 24.98 276.99 24.98"/>
    </g>
    <g>
      <line class="st13" x1="283.55" y1="43.8" x2="283.55" y2="20.04"/>
      <polygon class="st19" points="284.86 20.93 283.55 16.05 282.24 20.93 284.86 20.93"/>
    </g>
    <g>
      <line class="st13" x1="291.42" y1="41.18" x2="291.42" y2="21.37"/>
      <polygon class="st19" points="292.73 22.26 291.42 17.39 290.11 22.26 292.73 22.26"/>
    </g>
    <path class="st15" d="M299.29,16.59"/>
    <path class="st15" d="M299.29,38.55"/>
    <path class="st13" d="M264.08,32.38c6.09,0,7.78-14.32,18.96-16.33,3.01-.54,5.72,1.43,11.94,1.46"/>
  </g>
  <g>
    <line class="st13" x1="301.56" y1="66.13" x2="277.93" y2="74.03"/>
    <g>
      <line class="st13" x1="277.93" y1="74.03" x2="306.55" y2="84.25"/>
      <polygon class="st19" points="305.27 85.18 310.3 85.59 306.15 82.72 305.27 85.18"/>
    </g>
    <path class="st15" d="M335.61,72.85"/>
    <path class="st15" d="M309.43,63.5"/>
    <g>
      <line class="st13" x1="285.81" y1="71.4" x2="317.57" y2="82.74"/>
      <polygon class="st19" points="316.3 83.67 321.33 84.08 317.17 81.21 316.3 83.67"/>
    </g>
    <g>
      <line class="st13" x1="301.56" y1="66.13" x2="325.72" y2="74.76"/>
      <polygon class="st19" points="324.44 75.69 329.47 76.1 325.32 73.23 324.44 75.69"/>
    </g>
    <g>
      <line class="st13" x1="293.68" y1="68.76" x2="321.68" y2="78.76"/>
      <polygon class="st19" points="320.4 79.69 325.43 80.1 321.28 77.23 320.4 79.69"/>
    </g>
    <path class="st13" d="M308.39,87.84c1.94-4.82,10.9-2.33,12.94-3.76,2.61-1.82,4.27-4.65,6.58-6.72,1.54-1.38,3.01-2.24,4.1-2.81.3-.15.56-.29.8-.4"/>
  </g>
  <g>
    <line class="st14" x1="69.72" y1="162.88" x2="69.72" y2="93.85"/>
    <polygon class="st28" points="71.9 95.34 69.72 87.21 67.54 95.34 71.9 95.34"/>
  </g>
  <g>
    <line class="st14" x1="43.95" y1="127.98" x2="127.32" y2="157.75"/>
    <polygon class="st28" points="125.19 159.31 133.58 159.99 126.66 155.2 125.19 159.31"/>
  </g>
  <text class="st20" transform="translate(135.7 166.75)"><tspan x="0" y="0">V</tspan></text>
  <text class="st20" transform="translate(143.03 170.41) scale(.58)"><tspan x="0" y="0">x</tspan></text>
  <text class="st20" transform="translate(66.22 82.41)"><tspan x="0" y="0">V</tspan></text>
  <text class="st20" transform="translate(73.55 86.07) scale(.58)"><tspan x="0" y="0">y</tspan></text>
  <rect class="st24" x="68" y="103.27" width="3.44" height="2.1"/>
  <g>
    <path class="st16" d="M73.44,95.89c4.52.62,7.75,2.21,7.75,4.09,0,2.4-5.29,4.34-11.84,4.34-2.29,0-4.44-.24-6.25-.65"/>
    <polygon class="st28" points="64.93 102.37 58.25 101.48 63.58 105.59 64.93 102.37"/>
  </g>
  <rect class="st24" x="109.75" y="151.01" width="3.44" height="2.12" transform="translate(276.04 60.04) rotate(97.03)"/>
  <g>
    <path class="st16" d="M117.56,166.27c-3.45-.16-6.23-5.47-6.23-12.02s2.86-12.02,6.39-12.02c2.97,0,5.46,3.81,6.18,8.97"/>
    <polygon class="st28" points="116.45 164.47 122.87 166.51 116.3 167.96 116.45 164.47"/>
  </g>
  <text class="st20" transform="translate(46.36 104.32)"><tspan x="0" y="0">M</tspan></text>
  <text class="st20" transform="translate(55.52 107.98) scale(.58)"><tspan x="0" y="0">y</tspan></text>
  <text class="st20" transform="translate(111.33 177.75)"><tspan x="0" y="0">M</tspan></text>
  <text class="st20" transform="translate(120.5 181.41) scale(.58)"><tspan x="0" y="0">x</tspan></text>
  <g>
    <line class="st14" x1="69.31" y1="137.2" x2="42.67" y2="146.08"/>
    <polygon class="st28" points="43.39 143.54 36.37 148.18 44.77 147.67 43.39 143.54"/>
  </g>
  <text class="st20" transform="translate(33.67 160.45)"><tspan x="0" y="0">N</tspan></text>
  <text class="st20" transform="translate(41.62 164.12) scale(.58)"><tspan x="0" y="0">z</tspan></text>
  <text class="st20" transform="translate(31.63 140.09)"><tspan x="0" y="0">T</tspan></text>
  <rect class="st24" x="52.97" y="140.83" width="3.44" height="2.51" transform="translate(184.71 62.89) rotate(79.7)"/>
  <g>
    <path class="st16" d="M40.28,139.02c1.27-3.95,3.85-6.65,6.82-6.65,4.23,0,7.67,5.47,7.67,12.21,0,5.68-2.43,10.45-5.72,11.82"/>
    <polygon class="st28" points="42.33 138.19 39.45 144.28 38.9 137.57 42.33 138.19"/>
  </g>
  <text class="st23" transform="translate(345.41 68.79)"><tspan x="0" y="0">x</tspan></text>
  <text class="st23" transform="translate(304.32 11.16)"><tspan x="0" y="0">y</tspan></text>
  <text class="st20" transform="translate(276.81 8.35)"><tspan x="0" y="0">w</tspan></text>
  <text class="st21" transform="translate(284.75 12.01) scale(.58)"><tspan x="0" y="0">y</tspan></text>
  <text class="st20" transform="translate(326.84 91.29)"><tspan x="0" y="0">w</tspan></text>
  <text class="st21" transform="translate(334.79 94.96) scale(.58)"><tspan x="0" y="0">x</tspan></text>
  <text class="st25" transform="translate(149.72 150.08)"><tspan x="0" y="0">V</tspan></text>
  <text class="st25" transform="translate(157.06 153.74) scale(.58)"><tspan x="0" y="0">y</tspan></text>
</svg>