<?xml version="1.0" encoding="UTF-8"?>
<svg id="Layer_1" xmlns="http://www.w3.org/2000/svg" version="1.1" viewBox="0 0 394.79 182.18">
  <!-- Generator: Adobe Illustrator 29.7.1, SVG Export Plug-In . SVG Version: 2.1.1 Build 8)  -->
  <defs>
    <style>
      .st0 {
        fill: #bcbec0;
      }

      .st0, .st1, .st2, .st3, .st4, .st5, .st6 {
        stroke: #010101;
        stroke-linejoin: round;
      }

      .st7, .st8 {
        fill: #231f20;
      }

      .st9 {
        fill: #fff;
      }

      .st1 {
        stroke-dasharray: 7.87 3.93 1.97 3.93;
      }

      .st1, .st2, .st3, .st4, .st10, .st5, .st6 {
        fill: none;
      }

      .st1, .st2, .st3, .st4, .st6 {
        stroke-width: .25px;
      }

      .st2 {
        stroke-dasharray: 7.87 3.93 1.97 3.93;
      }

      .st11 {
        font-family: TimesNewRomanPS-ItalicMT, 'Times New Roman';
        font-size: 11px;
        font-style: italic;
      }

      .st11, .st12 {
        fill: #010101;
      }

      .st3 {
        stroke-dasharray: 1.97 3.93;
      }

      .st10 {
        stroke: #231f20;
        stroke-miterlimit: 10;
      }

      .st10, .st5 {
        stroke-width: .5px;
      }

      .st6 {
        stroke-dasharray: 1.97 3.93;
      }

      .st8 {
        font-family: ArialMT, Arial;
        font-size: 12px;
      }
    </style>
  </defs>
  <polygon class="st0" points="267.23 29.82 267.23 19.19 231.8 19.19 224.71 19.19 189.28 19.19 189.28 29.82 224.71 29.82 224.71 121.94 189.28 121.94 189.28 132.57 224.71 132.57 231.8 132.57 267.23 132.57 267.23 121.94 231.8 121.94 231.8 29.82 267.23 29.82"/>
  <g>
    <line class="st4" x1="228.26" y1="1.47" x2="228.26" y2="5.47"/>
    <line class="st3" x1="228.26" y1="9.41" x2="228.26" y2="13.34"/>
    <line class="st1" x1="228.26" y1="15.31" x2="228.26" y2="154.95"/>
    <line class="st4" x1="228.26" y1="156.92" x2="228.26" y2="160.92"/>
  </g>
  <text class="st8" transform="translate(74.96 178.64)"><tspan x="0" y="0">(a)</tspan></text>
  <text class="st8" transform="translate(220.24 178.64)"><tspan x="0" y="0">(b)</tspan></text>
  <rect class="st0" x="47.55" y="22.73" width="70.87" height="106.3"/>
  <g>
    <line class="st5" x1="82.97" y1="75.88" x2="15.48" y2="75.88"/>
    <path class="st12" d="M82.97,74c1.04,0,1.88.84,1.88,1.88s-.84,1.88-1.88,1.88-1.88-.84-1.88-1.88.84-1.88,1.88-1.88Z"/>
    <polygon class="st12" points="16.47 74.43 11.05 75.88 16.47 77.33 16.47 74.43"/>
  </g>
  <g>
    <line class="st9" x1="82.97" y1="75.53" x2="82.97" y2="146.66"/>
    <g>
      <line class="st10" x1="82.97" y1="75.53" x2="82.97" y2="142.23"/>
      <polygon class="st7" points="81.52 141.24 82.97 146.66 84.42 141.24 81.52 141.24"/>
    </g>
  </g>
  <text class="st11" transform="translate(3.8 77.96)"><tspan x="0" y="0">x</tspan></text>
  <text class="st11" transform="translate(75.89 150.29)"><tspan x="0" y="0">y</tspan></text>
  <g>
    <line class="st5" x1="228.25" y1="76.25" x2="160.76" y2="76.25"/>
    <path class="st12" d="M228.25,74.94c.73,0,1.32.59,1.32,1.32s-.59,1.32-1.32,1.32-1.32-.59-1.32-1.32.59-1.32,1.32-1.32Z"/>
    <polygon class="st12" points="161.75 74.8 156.33 76.25 161.75 77.7 161.75 74.8"/>
  </g>
  <g>
    <line class="st9" x1="228.25" y1="75.9" x2="228.25" y2="147.03"/>
    <g>
      <line class="st10" x1="228.25" y1="75.9" x2="228.25" y2="142.6"/>
      <polygon class="st7" points="226.79 141.61 228.24 147.03 229.7 141.61 226.79 141.61"/>
    </g>
  </g>
  <text class="st11" transform="translate(149.07 78.33)"><tspan x="0" y="0">x</tspan></text>
  <text class="st11" transform="translate(221.17 150.29)"><tspan x="0" y="0">y</tspan></text>
  <g>
    <line class="st4" x1="82.98" y1="1.47" x2="82.98" y2="5.47"/>
    <line class="st3" x1="82.98" y1="9.41" x2="82.98" y2="13.34"/>
    <line class="st1" x1="82.98" y1="15.31" x2="82.98" y2="154.95"/>
    <line class="st4" x1="82.98" y1="156.92" x2="82.98" y2="160.92"/>
  </g>
  <text class="st8" transform="translate(354.88 178.64)"><tspan x="0" y="0">(c)</tspan></text>
  <polygon class="st0" points="391.25 26.28 391.25 19.19 355.81 19.19 348.73 19.19 348.73 19.19 348.73 29.82 348.73 29.82 348.73 121.94 348.73 121.94 348.73 132.57 348.73 132.57 355.81 132.57 391.25 132.57 391.25 125.49 355.81 121.94 355.81 29.82 391.25 26.28"/>
  <g>
    <line class="st4" x1="423.14" y1="75.88" x2="419.14" y2="75.88"/>
    <line class="st6" x1="415.2" y1="75.88" x2="411.27" y2="75.88"/>
    <line class="st2" x1="409.3" y1="75.88" x2="287.37" y2="75.88"/>
    <line class="st4" x1="285.41" y1="75.88" x2="281.41" y2="75.88"/>
  </g>
  <g>
    <line class="st9" x1="362.89" y1="76.25" x2="362.89" y2="146.75"/>
    <g>
      <line class="st10" x1="362.89" y1="76.25" x2="362.89" y2="142.32"/>
      <polygon class="st7" points="361.44 141.33 362.89 146.75 364.34 141.33 361.44 141.33"/>
    </g>
  </g>
  <text class="st11" transform="translate(288.49 82.97)"><tspan x="0" y="0">x</tspan></text>
  <text class="st11" transform="translate(355.81 150.29)"><tspan x="0" y="0">y</tspan></text>
  <g>
    <line class="st5" x1="362.9" y1="75.88" x2="295.58" y2="75.88"/>
    <circle class="st12" cx="362.9" cy="75.88" r="1.32"/>
    <polygon class="st12" points="296.57 74.43 291.15 75.88 296.57 77.33 296.57 74.43"/>
  </g>
</svg>