<?xml version="1.0" encoding="UTF-8"?>
<svg id="Layer_1" xmlns="http://www.w3.org/2000/svg" version="1.1" viewBox="0 0 357.4 177.17">
  <!-- Generator: Adobe Illustrator 29.7.1, SVG Export Plug-In . SVG Version: 2.1.1 Build 8)  -->
  <defs>
    <style>
      .st0, .st1 {
        font-family: MyriadPro-Regular, 'Myriad Pro';
      }

      .st0, .st1, .st2, .st3 {
        fill: #231f20;
      }

      .st0, .st4, .st5, .st6, .st3 {
        font-size: 11px;
      }

      .st7, .st4, .st6 {
        fill: #1971b9;
      }

      .st1 {
        font-size: 10px;
      }

      .st8 {
        fill: #fff6cc;
      }

      .st8, .st9, .st10, .st11, .st12, .st13 {
        stroke-miterlimit: 10;
      }

      .st8, .st9, .st12, .st13 {
        stroke: #231f20;
      }

      .st9 {
        fill: #fff;
      }

      .st4, .st5, .st6 {
        font-family: ArialMT, Arial;
      }

      .st5 {
        fill: #1c75bc;
      }

      .st10, .st14, .st11, .st15, .st12 {
        fill: none;
      }

      .st10, .st11 {
        stroke: #414042;
      }

      .st10, .st12 {
        stroke-width: .5px;
      }

      .st14 {
        stroke-width: 2.5px;
      }

      .st14, .st15 {
        stroke: #1971b9;
        stroke-linejoin: round;
      }

      .st11 {
        stroke-linecap: round;
        stroke-width: 1.5px;
      }

      .st6 {
        letter-spacing: 0em;
      }

      .st3 {
        font-family: TimesNewRomanPS-ItalicMT, 'Times New Roman';
        font-style: italic;
      }

      .st13 {
        fill: #bcbec0;
      }
    </style>
  </defs>
  <rect class="st9" x="176.81" y="88.58" width="180.6" height="88.58"/>
  <rect class="st9" x="176.81" y="0" width="180.6" height="88.58"/>
  <rect class="st9" y="88.58" width="180.6" height="88.58"/>
  <rect class="st8" x="0" y="0" width="180.6" height="88.58"/>
  <rect class="st13" x="10.52" y="31.89" width="120.47" height="7.09"/>
  <text class="st3" transform="translate(10.52 70.87)"><tspan x="0" y="0">y</tspan></text>
  <text class="st3" transform="translate(155.79 38.98)"><tspan x="0" y="0">z</tspan></text>
  <g>
    <line class="st12" x1="10.52" y1="35.43" x2="149.26" y2="35.43"/>
    <polygon class="st2" points="147.86 37.28 148.65 35.43 147.86 33.58 152.25 35.43 147.86 37.28"/>
  </g>
  <g>
    <line class="st12" x1="10.52" y1="35.43" x2="10.52" y2="60.79"/>
    <polygon class="st2" points="8.67 59.39 10.52 60.18 12.37 59.39 10.52 63.78 8.67 59.39"/>
  </g>
  <g>
    <line class="st11" x1="10.52" y1="22.1" x2="10.52" y2="49.61"/>
    <line class="st10" x1="10.52" y1="26.03" x2="6.39" y2="22.1"/>
    <line class="st10" x1="10.52" y1="33.89" x2="2.27" y2="26.03"/>
    <line class="st10" x1="10.52" y1="41.75" x2="2.27" y2="33.89"/>
    <line class="st10" x1="10.52" y1="49.61" x2="2.27" y2="41.75"/>
  </g>
  <g>
    <path class="st14" d="M134.53,49.61c7-7,8.1-17.66,3.3-25.81"/>
    <polygon class="st7" points="141.4 22.51 134.53 19.54 135.39 26.97 141.4 22.51"/>
  </g>
  <text class="st5" transform="translate(130.99 14.17)"><tspan x="0" y="0">M</tspan></text>
  <text class="st5" transform="translate(140.15 17.84) scale(.58)"><tspan x="0" y="0">x</tspan></text>
  <rect class="st13" x="10.52" y="134.65" width="120.47" height="7.09"/>
  <text class="st3" transform="translate(10.52 102.76)"><tspan x="0" y="0">y</tspan></text>
  <text class="st3" transform="translate(155.79 141.73)"><tspan x="0" y="0">z</tspan></text>
  <g>
    <line class="st12" x1="10.52" y1="138.19" x2="149.26" y2="138.19"/>
    <polygon class="st2" points="147.86 140.04 148.65 138.19 147.86 136.34 152.25 138.19 147.86 140.04"/>
  </g>
  <g>
    <line class="st12" x1="10.52" y1="138.19" x2="10.52" y2="109.28"/>
    <polygon class="st2" points="12.37 110.69 10.52 109.9 8.67 110.69 10.52 106.3 12.37 110.69"/>
  </g>
  <g>
    <line class="st11" x1="10.52" y1="124.86" x2="10.52" y2="152.36"/>
    <line class="st10" x1="10.52" y1="128.79" x2="6.39" y2="124.86"/>
    <line class="st10" x1="10.52" y1="136.64" x2="2.26" y2="128.79"/>
    <line class="st10" x1="10.52" y1="144.5" x2="2.26" y2="136.64"/>
    <line class="st10" x1="10.52" y1="152.36" x2="2.26" y2="144.5"/>
  </g>
  <g>
    <path class="st14" d="M137.83,148.1c4.8-8.15,3.7-18.8-3.3-25.81"/>
    <polygon class="st7" points="141.4 149.39 134.53 152.36 135.39 144.93 141.4 149.39"/>
  </g>
  <text class="st5" transform="translate(138.08 162.99)"><tspan x="0" y="0">M</tspan></text>
  <text class="st5" transform="translate(147.24 166.66) scale(.58)"><tspan x="0" y="0">x</tspan></text>
  <text class="st3" transform="translate(340.04 70.87)"><tspan x="0" y="0">y</tspan></text>
  <text class="st3" transform="translate(194.77 38.98)"><tspan x="0" y="0">z</tspan></text>
  <g>
    <rect class="st13" x="226.66" y="32.35" width="120.47" height="7.09" transform="translate(573.79 71.78) rotate(-180)"/>
    <g>
      <line class="st12" x1="347.13" y1="35.89" x2="208.38" y2="35.89"/>
      <polygon class="st2" points="209.79 34.04 209 35.89 209.79 37.74 205.4 35.89 209.79 34.04"/>
    </g>
    <g>
      <line class="st12" x1="347.13" y1="35.89" x2="347.13" y2="61.25"/>
      <polygon class="st2" points="345.28 59.85 347.13 60.63 348.98 59.85 347.13 64.24 345.28 59.85"/>
    </g>
    <g>
      <line class="st11" x1="347.13" y1="22.56" x2="347.13" y2="50.06"/>
      <line class="st10" x1="347.13" y1="26.49" x2="351.26" y2="22.56"/>
      <line class="st10" x1="347.13" y1="34.35" x2="355.38" y2="26.49"/>
      <line class="st10" x1="347.13" y1="42.2" x2="355.38" y2="34.35"/>
      <line class="st10" x1="347.13" y1="50.06" x2="355.38" y2="42.2"/>
    </g>
  </g>
  <g>
    <path class="st14" d="M222.26,49.61c-7-7-8.1-17.66-3.3-25.81"/>
    <polygon class="st7" points="221.4 26.97 222.26 19.54 215.4 22.51 221.4 26.97"/>
  </g>
  <text class="st5" transform="translate(208.94 14.17)"><tspan x="0" y="0">M</tspan></text>
  <text class="st5" transform="translate(218.1 17.84) scale(.58)"><tspan x="0" y="0">x</tspan></text>
  <g>
    <rect class="st13" x="226.66" y="134.65" width="120.47" height="7.09" transform="translate(573.79 276.38) rotate(180)"/>
    <g>
      <line class="st12" x1="347.13" y1="138.19" x2="208.38" y2="138.19"/>
      <polygon class="st2" points="209.79 136.34 209 138.19 209.79 140.04 205.4 138.19 209.79 136.34"/>
    </g>
    <g>
      <line class="st12" x1="347.13" y1="138.19" x2="347.13" y2="112.83"/>
      <polygon class="st2" points="348.98 114.23 347.13 113.45 345.28 114.23 347.13 109.84 348.98 114.23"/>
    </g>
    <g>
      <line class="st11" x1="347.13" y1="151.52" x2="347.13" y2="124.02"/>
      <line class="st10" x1="347.13" y1="147.59" x2="351.26" y2="151.52"/>
      <line class="st10" x1="347.13" y1="139.73" x2="355.38" y2="147.59"/>
      <line class="st10" x1="347.13" y1="131.87" x2="355.38" y2="139.73"/>
      <line class="st10" x1="347.13" y1="124.02" x2="355.38" y2="131.87"/>
    </g>
  </g>
  <text class="st3" transform="translate(343.59 102.76)"><tspan x="0" y="0">y</tspan></text>
  <text class="st3" transform="translate(198.31 141.73)"><tspan x="0" y="0">z</tspan></text>
  <g>
    <path class="st14" d="M219.81,148.1c-4.8-8.15-3.7-18.8,3.3-25.81"/>
    <polygon class="st7" points="222.26 144.93 223.12 152.36 216.25 149.39 222.26 144.93"/>
  </g>
  <text class="st5" transform="translate(208.94 162.99)"><tspan x="0" y="0">M</tspan></text>
  <text class="st5" transform="translate(218.11 166.66) scale(.58)"><tspan x="0" y="0">x</tspan></text>
  <g>
    <g>
      <line class="st15" x1="35.26" y1="27.46" x2="35.26" y2="17.72"/>
      <polygon class="st7" points="36.72 26.47 35.26 31.89 33.81 26.47 36.72 26.47"/>
    </g>
    <g>
      <line class="st15" x1="59.19" y1="27.46" x2="59.19" y2="17.72"/>
      <polygon class="st7" points="60.65 26.47 59.2 31.89 57.74 26.47 60.65 26.47"/>
    </g>
    <g>
      <line class="st15" x1="83.13" y1="27.46" x2="83.13" y2="17.72"/>
      <polygon class="st7" points="84.58 26.47 83.13 31.89 81.67 26.47 84.58 26.47"/>
    </g>
    <g>
      <line class="st15" x1="107.06" y1="27.46" x2="107.06" y2="17.72"/>
      <polygon class="st7" points="108.51 26.47 107.06 31.89 105.61 26.47 108.51 26.47"/>
    </g>
    <g>
      <polyline class="st15" points="11.33 27.46 11.33 17.72 130.99 17.72 130.99 27.46"/>
      <polygon class="st7" points="12.78 26.47 11.33 31.89 9.88 26.47 12.78 26.47"/>
      <polygon class="st7" points="129.54 26.47 130.99 31.89 132.44 26.47 129.54 26.47"/>
    </g>
  </g>
  <text class="st4" transform="translate(67.21 10.63)"><tspan x="0" y="0">w</tspan></text>
  <text class="st6" transform="translate(75.15 14.29) scale(.58)"><tspan x="0" y="0">y</tspan></text>
  <g>
    <g>
      <line class="st15" x1="250.59" y1="27.46" x2="250.59" y2="17.72"/>
      <polygon class="st7" points="252.04 26.47 250.59 31.89 249.14 26.47 252.04 26.47"/>
    </g>
    <g>
      <line class="st15" x1="274.52" y1="27.46" x2="274.52" y2="17.72"/>
      <polygon class="st7" points="275.97 26.47 274.52 31.89 273.07 26.47 275.97 26.47"/>
    </g>
    <g>
      <line class="st15" x1="298.45" y1="27.46" x2="298.45" y2="17.72"/>
      <polygon class="st7" points="299.91 26.47 298.45 31.89 297 26.47 299.91 26.47"/>
    </g>
    <g>
      <line class="st15" x1="322.39" y1="27.46" x2="322.39" y2="17.72"/>
      <polygon class="st7" points="323.84 26.47 322.39 31.89 320.93 26.47 323.84 26.47"/>
    </g>
    <g>
      <polyline class="st15" points="226.66 27.46 226.66 17.72 346.32 17.72 346.32 27.46"/>
      <polygon class="st7" points="228.11 26.47 226.66 31.89 225.21 26.47 228.11 26.47"/>
      <polygon class="st7" points="344.86 26.47 346.32 31.89 347.77 26.47 344.86 26.47"/>
    </g>
  </g>
  <text class="st4" transform="translate(282.54 10.63)"><tspan x="0" y="0">w</tspan></text>
  <text class="st6" transform="translate(290.48 14.29) scale(.58)"><tspan x="0" y="0">y</tspan></text>
  <g>
    <g>
      <line class="st15" x1="322.39" y1="146.16" x2="322.39" y2="155.91"/>
      <polygon class="st7" points="320.93 147.15 322.38 141.73 323.84 147.15 320.93 147.15"/>
    </g>
    <g>
      <line class="st15" x1="298.45" y1="146.16" x2="298.45" y2="155.91"/>
      <polygon class="st7" points="297 147.15 298.45 141.73 299.91 147.15 297 147.15"/>
    </g>
    <g>
      <line class="st15" x1="274.52" y1="146.16" x2="274.52" y2="155.91"/>
      <polygon class="st7" points="273.07 147.15 274.52 141.73 275.97 147.15 273.07 147.15"/>
    </g>
    <g>
      <line class="st15" x1="250.59" y1="146.16" x2="250.59" y2="155.91"/>
      <polygon class="st7" points="249.14 147.15 250.59 141.73 252.04 147.15 249.14 147.15"/>
    </g>
    <g>
      <polyline class="st15" points="346.32 146.16 346.32 155.91 226.66 155.91 226.66 146.16"/>
      <polygon class="st7" points="344.86 147.15 346.32 141.73 347.77 147.15 344.86 147.15"/>
      <polygon class="st7" points="228.11 147.15 226.66 141.73 225.21 147.15 228.11 147.15"/>
    </g>
  </g>
  <text class="st4" transform="translate(283.35 166.54)"><tspan x="0" y="0">w</tspan></text>
  <text class="st6" transform="translate(291.29 170.2) scale(.58)"><tspan x="0" y="0">y</tspan></text>
  <g>
    <g>
      <line class="st15" x1="107.06" y1="146.16" x2="107.06" y2="155.91"/>
      <polygon class="st7" points="105.61 147.15 107.06 141.73 108.51 147.15 105.61 147.15"/>
    </g>
    <g>
      <line class="st15" x1="83.13" y1="146.16" x2="83.13" y2="155.91"/>
      <polygon class="st7" points="81.67 147.15 83.13 141.73 84.58 147.15 81.67 147.15"/>
    </g>
    <g>
      <line class="st15" x1="59.19" y1="146.16" x2="59.19" y2="155.91"/>
      <polygon class="st7" points="57.74 147.15 59.19 141.73 60.65 147.15 57.74 147.15"/>
    </g>
    <g>
      <line class="st15" x1="35.26" y1="146.16" x2="35.26" y2="155.91"/>
      <polygon class="st7" points="33.81 147.15 35.26 141.73 36.72 147.15 33.81 147.15"/>
    </g>
    <g>
      <polyline class="st15" points="130.99 146.16 130.99 155.91 11.33 155.91 11.33 146.16"/>
      <polygon class="st7" points="129.54 147.15 130.99 141.73 132.44 147.15 129.54 147.15"/>
      <polygon class="st7" points="12.78 147.15 11.33 141.73 9.88 147.15 12.78 147.15"/>
    </g>
  </g>
  <text class="st4" transform="translate(68.02 166.54)"><tspan x="0" y="0">w</tspan></text>
  <text class="st6" transform="translate(75.97 170.2) scale(.58)"><tspan x="0" y="0">y</tspan></text>
  <text class="st1" transform="translate(14.06 49.61)"><tspan x="0" y="0">A</tspan></text>
  <text class="st1" transform="translate(127.45 49.61)"><tspan x="0" y="0">B</tspan></text>
  <text class="st1" transform="translate(14.06 131.1)"><tspan x="0" y="0">A</tspan></text>
  <text class="st1" transform="translate(127.45 131.1)"><tspan x="0" y="0">B</tspan></text>
  <text class="st1" transform="translate(226.66 131.1)"><tspan x="0" y="0">B</tspan></text>
  <text class="st1" transform="translate(336.5 131.1)"><tspan x="0" y="0">A</tspan></text>
  <text class="st1" transform="translate(226.66 49.61)"><tspan x="0" y="0">B</tspan></text>
  <text class="st1" transform="translate(336.5 49.61)"><tspan x="0" y="0">A</tspan></text>
  <text class="st0" transform="translate(35.32 77.95)"><tspan x="0" y="0">Common Orientation</tspan></text>
  <text class="st0" transform="translate(216.03 77.95)"><tspan x="0" y="0">Equivalent Orientation</tspan></text>
  <text class="st0" transform="translate(35.32 102.76)"><tspan x="0" y="0">Equivalent Orientation</tspan></text>
  <text class="st0" transform="translate(216.03 102.76)"><tspan x="0" y="0">Equivalent Orientation</tspan></text>
</svg>